<svg width="21" height="14" viewBox="0 0 21 14" fill="none" xmlns="http://www.w3.org/2000/svg">
<path d="M10.0894 7.18127C10.5659 6.80091 10.948 6.33047 11.2099 5.80188C11.4718 5.27328 11.6073 4.69891 11.6073 4.11774C11.6073 3.02567 11.137 1.97833 10.2997 1.20612C9.46251 0.433914 8.32699 9.15527e-05 7.14297 9.15527e-05C5.95895 9.15527e-05 4.82342 0.433914 3.98619 1.20612C3.14896 1.97833 2.67861 3.02567 2.67861 4.11774C2.67861 4.69891 2.81415 5.27328 3.07605 5.80188C3.33795 6.33047 3.72008 6.80091 4.19649 7.18127C2.9466 7.70329 1.88616 8.54629 1.14196 9.60948C0.39777 10.6727 0.00131418 11.9111 0 13.1766C0 13.395 0.09407 13.6044 0.261516 13.7589C0.428961 13.9133 0.656067 14.0001 0.892871 14.0001C1.12967 14.0001 1.35678 13.9133 1.52423 13.7589C1.69167 13.6044 1.78574 13.395 1.78574 13.1766C1.78574 11.8661 2.35016 10.6093 3.35484 9.68262C4.35951 8.75597 5.72214 8.23539 7.14297 8.23539C8.56379 8.23539 9.92642 8.75597 10.9311 9.68262C11.9358 10.6093 12.5002 11.8661 12.5002 13.1766C12.5002 13.395 12.5943 13.6044 12.7617 13.7589C12.9292 13.9133 13.1563 14.0001 13.3931 14.0001C13.6299 14.0001 13.857 13.9133 14.0244 13.7589C14.1919 13.6044 14.2859 13.395 14.2859 13.1766C14.2846 11.9111 13.8882 10.6727 13.144 9.60948C12.3998 8.54629 11.3393 7.70329 10.0894 7.18127ZM7.14297 6.58833C6.61319 6.58833 6.0953 6.44343 5.65481 6.17196C5.21431 5.90049 4.87099 5.51463 4.66825 5.06319C4.46551 4.61175 4.41247 4.115 4.51582 3.63575C4.61918 3.1565 4.87429 2.71629 5.2489 2.37077C5.62351 2.02525 6.10079 1.78995 6.62039 1.69462C7.13999 1.59929 7.67857 1.64822 8.16803 1.83521C8.65748 2.02221 9.07582 2.33887 9.37015 2.74515C9.66448 3.15144 9.82158 3.6291 9.82158 4.11774C9.82158 4.77298 9.53937 5.40138 9.03703 5.86471C8.53469 6.32803 7.85338 6.58833 7.14297 6.58833Z" fill="#161616"/>
<path d="M17.6187 2.80002V7.46668" stroke="#161616" stroke-width="1.7" stroke-linecap="round" stroke-linejoin="round"/>
<path d="M15.2383 5.13336H20.0003" stroke="#161616" stroke-width="1.7" stroke-linecap="round" stroke-linejoin="round"/>
</svg>
