<svg width="17" height="18" viewBox="0 0 17 18" fill="none" xmlns="http://www.w3.org/2000/svg">
<path d="M13.6 6.85714H9.35V4.28571H7.65V6.85714H3.4C2.49826 6.85714 1.63346 7.21837 0.995837 7.86135C0.358213 8.50433 0 9.3764 0 10.2857V18H17V10.2857C17 9.3764 16.6418 8.50433 16.0042 7.86135C15.3665 7.21837 14.5017 6.85714 13.6 6.85714ZM15.3 16.2857H1.7V13.7143C2.13911 13.6973 2.57009 13.5896 2.9663 13.3979C3.36251 13.2063 3.71552 12.9347 4.0035 12.6C4.12244 12.4161 4.285 12.2649 4.47646 12.1603C4.66793 12.0557 4.88224 12.001 5.1 12.001C5.31776 12.001 5.53207 12.0557 5.72354 12.1603C5.915 12.2649 6.07756 12.4161 6.1965 12.6C6.47463 12.9456 6.82575 13.2243 7.22425 13.4157C7.62276 13.6072 8.0586 13.7065 8.5 13.7065C8.9414 13.7065 9.37724 13.6072 9.77575 13.4157C10.1742 13.2243 10.5254 12.9456 10.8035 12.6C10.9224 12.4161 11.085 12.2649 11.2765 12.1603C11.4679 12.0557 11.6822 12.001 11.9 12.001C12.1178 12.001 12.3321 12.0557 12.5235 12.1603C12.715 12.2649 12.8776 12.4161 12.9965 12.6C13.2845 12.9347 13.6375 13.2063 14.0337 13.3979C14.4299 13.5896 14.8609 13.6973 15.3 13.7143V16.2857ZM15.3 12C14.8723 11.9474 14.4804 11.7329 14.2035 11.4C13.9254 11.0544 13.5742 10.7757 13.1757 10.5843C12.7772 10.3928 12.3414 10.2935 11.9 10.2935C11.4586 10.2935 11.0228 10.3928 10.6243 10.5843C10.2258 10.7757 9.87463 11.0544 9.5965 11.4C9.47756 11.5839 9.315 11.7351 9.12354 11.8397C8.93207 11.9443 8.71776 11.999 8.5 11.999C8.28224 11.999 8.06793 11.9443 7.87646 11.8397C7.685 11.7351 7.52244 11.5839 7.4035 11.4C7.12537 11.0544 6.77425 10.7757 6.37575 10.5843C5.97724 10.3928 5.5414 10.2935 5.1 10.2935C4.6586 10.2935 4.22275 10.3928 3.82425 10.5843C3.42575 10.7757 3.07463 11.0544 2.7965 11.4C2.51961 11.7329 2.1277 11.9474 1.7 12V10.2857C1.7 9.83106 1.87911 9.39502 2.19792 9.07353C2.51673 8.75204 2.94913 8.57143 3.4 8.57143H13.6C14.0509 8.57143 14.4833 8.75204 14.8021 9.07353C15.1209 9.39502 15.3 9.83106 15.3 10.2857V12ZM8.5 3.59143C8.84942 3.59143 9.18454 3.45145 9.43161 3.2023C9.67869 2.95314 9.8175 2.61522 9.8175 2.26286C9.8175 1.2 8.5 0 8.5 0C8.5 0 7.1825 1.2 7.1825 2.26286C7.1825 2.61522 7.32131 2.95314 7.56839 3.2023C7.81547 3.45145 8.15058 3.59143 8.5 3.59143Z" fill="#161616"/>
</svg>
