<svg xmlns="http://www.w3.org/2000/svg" width="14" height="10" fill="#292929" viewBox="0 0 14 10">
    <path id="Контур_63758" d="M77.5,160h-13a.478.478,0,0,0-.5.455v9.091a.478.478,0,0,0,.5.455h13a.478.478,0,0,0,.5-.455v-9.091A.478.478,0,0,0,77.5,160Zm-.625,1.574v7.4H65.125v-7.4l-.431-.305.614-.717.669.473H76.025l.669-.473.614.717Zm-.85-.551L71,164.574l-5.025-3.551-.669-.473-.614.717.431.305,5.337,3.773a.945.945,0,0,0,1.073,0l5.341-3.771.431-.305-.614-.717Z" transform="translate(-64 -160)"/>
</svg>
