<svg width="15" height="18" viewBox="0 0 15 18" fill="none" xmlns="http://www.w3.org/2000/svg">
<path d="M7.50049 9.8C8.84668 9.8 9.93799 8.72548 9.93799 7.4C9.93799 6.07452 8.84668 5 7.50049 5C6.15429 5 5.06299 6.07452 5.06299 7.4C5.06299 8.72548 6.15429 9.8 7.50049 9.8Z" stroke="#161616" stroke-width="1.5" stroke-linecap="round" stroke-linejoin="round"/>
<path d="M7.5 1C5.77609 1 4.12279 1.67428 2.90381 2.87452C1.68482 4.07475 1 5.70261 1 7.4C1 8.9136 1.32662 9.904 2.21875 11L7.5 17L12.7812 11C13.6734 9.904 14 8.9136 14 7.4C14 5.70261 13.3152 4.07475 12.0962 2.87452C10.8772 1.67428 9.22391 1 7.5 1V1Z" stroke="#161616" stroke-width="1.5" stroke-linecap="round" stroke-linejoin="round"/>
</svg>
