<svg width="16" height="15" viewBox="0 0 16 15" fill="none" xmlns="http://www.w3.org/2000/svg">
<path d="M8 14.9933C7.484 14.5169 6.9008 14.0213 6.284 13.4941H6.276C4.104 11.645 1.64241 9.55276 0.555209 7.0457C0.198409 6.24777 0.00880917 5.37988 9.18206e-06 4.49866C-0.00117618 3.90061 0.112418 3.30835 0.334123 2.75664C0.555827 2.20494 0.881172 1.70491 1.29105 1.28592C1.70094 0.866938 2.18709 0.537439 2.72098 0.316775C3.25486 0.0961107 3.82571 -0.011271 4.4 0.000935259C5.34451 0.00248847 6.26867 0.286692 7.0624 0.819687C7.41118 1.05538 7.72674 1.34047 8 1.66676C8.2752 1.34192 8.5904 1.05707 8.9384 0.819687C9.73179 0.286586 10.6557 0.00236666 11.6 0.000935259C12.1743 -0.011271 12.7451 0.0961107 13.279 0.316775C13.8129 0.537439 14.2991 0.866938 14.7089 1.28592C15.1188 1.70491 15.4442 2.20494 15.6659 2.75664C15.8876 3.30835 16.0012 3.90061 16 4.49866C15.9918 5.38055 15.8025 6.25043 15.4448 7.04986C14.3576 9.55692 11.8968 11.6484 9.7248 13.4941L9.7168 13.5008C9.0992 14.0247 8.5168 14.5202 8.0008 15L8 14.9933ZM4.4 1.66676C3.65481 1.65705 2.93606 1.95398 2.40001 2.49301C2.14437 2.75444 1.94182 3.06671 1.80439 3.41125C1.66696 3.7558 1.59746 4.12559 1.60001 4.49866C1.60881 5.14 1.74881 5.77301 2.00961 6.35438C2.52283 7.43608 3.21531 8.41504 4.0552 9.24625C4.848 10.0792 5.76 10.8854 6.5488 11.5634C6.7672 11.7508 6.9896 11.9399 7.212 12.129L7.352 12.2481C7.5656 12.4296 7.7864 12.6179 8 12.8028L8.0104 12.7928L8.0152 12.7886H8.02L8.0272 12.7828H8.0352L8.0496 12.7703L8.0824 12.7428L8.088 12.7378L8.0968 12.7311H8.1016L8.1088 12.7245L8.64 12.2706L8.7792 12.1514C9.004 11.9607 9.2264 11.7716 9.4448 11.5842C10.2336 10.9062 11.1464 10.1008 11.9392 9.26374C12.7792 8.43298 13.4718 7.45427 13.9848 6.37271C14.2504 5.78634 14.3928 5.14666 14.4008 4.49866C14.4023 4.12666 14.3323 3.75811 14.1947 3.41477C14.0572 3.07144 13.855 2.76028 13.6 2.49967C13.065 1.95821 12.3461 1.65883 11.6 1.66676C11.1499 1.66277 10.704 1.75801 10.2918 1.94621C9.87949 2.13441 9.51015 2.4113 9.208 2.7587L8 4.20797L6.792 2.7587C6.48985 2.4113 6.12051 2.13441 5.70824 1.94621C5.29598 1.75801 4.85014 1.66277 4.4 1.66676Z" fill="#161616"/>
</svg>
