<svg xmlns="http://www.w3.org/2000/svg" width="14" height="14" fill="#B7B7B7" viewBox="0 0 14 14">
    <path id="Контур_63757" d="M173.364,118.16h-1.352v-3.92a2.407,2.407,0,0,0-2.545-2.24h-4.932a2.407,2.407,0,0,0-2.545,2.24v3.92h-1.352a.6.6,0,0,0-.636.56v6.72a.6.6,0,0,0,.636.56h12.727a.6.6,0,0,0,.636-.56v-6.72A.6.6,0,0,0,173.364,118.16Zm-9.943-3.92a1.054,1.054,0,0,1,1.114-.98h4.932a1.054,1.054,0,0,1,1.114.98v3.92H163.42Zm9.148,10.5H161.432v-5.32h11.136Zm-6.125-2.432v.927a.151.151,0,0,0,.159.14h.8a.151.151,0,0,0,.159-.14v-.927a.787.787,0,0,0,.352-.94,1,1,0,0,0-1.818,0A.787.787,0,0,0,166.443,122.308Z" transform="translate(-160 -112)"/>
</svg>
