<svg xmlns="http://www.w3.org/2000/svg" width="14" fill="#B7B7B7" height="14" viewBox="0 0 14 14">
    <path id="Контур_63759" d="M125.389,114.217l-1.864-1.862a1.2,1.2,0,0,0-1.708,0l-2.007,2a1.208,1.208,0,0,0,0,1.711l1.568,1.57a7.189,7.189,0,0,1-3.738,3.743l-1.568-1.57a1.2,1.2,0,0,0-1.708,0l-2.009,2a1.208,1.208,0,0,0,0,1.711l1.862,1.862a2.1,2.1,0,0,0,1.474.611,1.964,1.964,0,0,0,.336-.028,12.7,12.7,0,0,0,9.945-9.946A2.086,2.086,0,0,0,125.389,114.217Zm-.658,1.6a11.466,11.466,0,0,1-8.913,8.913.823.823,0,0,1-.714-.231l-1.829-1.829,1.939-1.941,2.1,2.1.016.016.378-.14a8.422,8.422,0,0,0,5-5l.14-.378-2.114-2.112,1.939-1.941L124.5,115.1A.819.819,0,0,1,124.731,115.818Z" transform="translate(-112 -112)"/>
</svg>
