<svg width="16" height="16" viewBox="0 0 16 16" fill="none" xmlns="http://www.w3.org/2000/svg">
<path d="M14.1071 8.78C14.14 8.524 14.1647 8.264 14.1647 8C14.1647 7.736 14.14 7.476 14.1071 7.22L15.8461 5.896C16.0024 5.776 16.0476 5.56 15.9448 5.384L14.3003 2.612C14.1976 2.44 13.9838 2.368 13.7988 2.44L11.7514 3.244C11.328 2.928 10.8634 2.66 10.3619 2.456L10.0535 0.336C10.0165 0.148 9.84796 0 9.64241 0H6.35348C6.14792 0 5.97937 0.148 5.94648 0.336L5.63814 2.456C5.13658 2.66 4.67202 2.924 4.24857 3.244L2.20121 2.44C2.01621 2.372 1.80243 2.44 1.69965 2.612L0.0551902 5.384C-0.0475887 5.556 -0.00236592 5.772 0.153858 5.896L1.88877 7.22C1.85588 7.476 1.83121 7.736 1.83121 8C1.83121 8.264 1.85588 8.524 1.88877 8.78L0.153858 10.104C-0.00236592 10.224 -0.0475887 10.44 0.0551902 10.616L1.69965 13.388C1.80243 13.56 2.01621 13.632 2.20121 13.56L4.24857 12.756C4.67202 13.072 5.13658 13.34 5.63814 13.544L5.94648 15.664C5.97937 15.852 6.14792 16 6.35348 16H9.64241C9.84796 16 10.0165 15.852 10.0494 15.664L10.3577 13.544C10.8593 13.34 11.3239 13.076 11.7473 12.756L13.7947 13.56C13.9797 13.628 14.1935 13.56 14.2962 13.388L15.9407 10.616C16.0435 10.444 15.9983 10.228 15.842 10.104L14.1071 8.78ZM7.99794 10.8C6.40693 10.8 5.12013 9.548 5.12013 8C5.12013 6.452 6.40693 5.2 7.99794 5.2C9.58896 5.2 10.8758 6.452 10.8758 8C10.8758 9.548 9.58896 10.8 7.99794 10.8Z" fill="#161616"/>
</svg>
