<svg width="15" height="13" viewBox="0 0 15 13" fill="none" xmlns="http://www.w3.org/2000/svg">
<path d="M12.7627 0.212283C12.83 0.144981 12.9099 0.0915941 12.9979 0.0551706C13.0858 0.018747 13.18 0 13.2752 0C13.3704 0 13.4646 0.018747 13.5526 0.0551706C13.6405 0.0915941 13.7204 0.144981 13.7877 0.212283C13.9236 0.348205 14 0.532556 14 0.724779C14 0.917003 13.9236 1.10135 13.7877 1.23728L9.72384 5.30115C9.98095 5.77945 10.0771 6.32786 9.99807 6.8651C9.91903 7.40233 9.66899 7.89981 9.28501 8.28378C8.90104 8.66776 8.40357 8.91779 7.86633 8.99684C7.32909 9.07588 6.78068 8.97972 6.30239 8.72261L2.23851 12.7865C2.1714 12.8541 2.09157 12.9078 2.00361 12.9445C1.91565 12.9811 1.8213 13 1.72601 13C1.63072 13 1.53637 12.9811 1.44841 12.9445C1.36045 12.9078 1.28062 12.8541 1.21352 12.7865C1.14586 12.7194 1.09216 12.6395 1.05551 12.5516C1.01887 12.4636 1 12.3693 1 12.274C1 12.1787 1.01887 12.0844 1.05551 11.9964C1.09216 11.9084 1.14586 11.8286 1.21352 11.7615L12.7627 0.212283ZM7.50062 7.58212C7.78778 7.58212 8.06317 7.46805 8.26623 7.265C8.46928 7.06194 8.58335 6.78654 8.58335 6.49938C8.58335 6.49938 8.58335 6.46329 8.58335 6.44886L7.45731 7.5749L7.50062 7.58212Z" fill="#B7B7B7"/>
<path d="M7.34307 10.4291C10.5634 10.5076 12.6754 7.6092 13.3344 6.50168C12.8652 5.71674 12.3014 4.99864 11.6568 4.36518L12.7503 3.25766C13.5956 4.09299 14.3197 5.0536 14.8997 6.10894C14.9654 6.22835 15 6.3638 15 6.50168C15 6.63956 14.9654 6.77501 14.8997 6.89441C14.4278 7.75058 11.904 12 7.49286 12H7.30563C6.47616 11.9742 5.65743 11.7961 4.88662 11.4737L6.06991 10.2327C6.48603 10.3475 6.91305 10.4134 7.34307 10.4291ZM0.116004 6.10894C0.595312 5.23706 3.239 0.861965 7.71004 1.00335C8.53951 1.02916 9.35824 1.20728 10.1291 1.52962L8.94576 2.77067C8.52964 2.65586 8.10262 2.58999 7.6726 2.5743C4.45973 2.4879 2.34778 5.39416 1.68124 6.50168C2.162 7.28895 2.73853 8.00716 3.39627 8.63817L2.2654 9.74569C1.40951 8.91255 0.675185 7.95183 0.0860481 6.89441C0.0248113 6.77227 -0.00466073 6.63536 0.000598262 6.49746C0.00585726 6.35957 0.0456609 6.22556 0.116004 6.10894V6.10894Z" fill="#B7B7B7"/>
</svg>
